<svg width="1000" height="1000" xmlns="http://www.w3.org/2000/svg">
 <metadata>Svg Vector Icons : http://www.onlinewebfonts.com/icon</metadata>

 <g>
  <title>background</title>
  <rect fill="none" id="canvas_background" height="402" width="582" y="-1" x="-1"/>
 </g>
 <g>
  <title>Layer 1</title>
  <g id="svg_1">
   <path fill="#3b4351" id="svg_2" d="m484,377.899994c-0.399994,-93.800018 -1.299988,-284.600006 -6.5,-367.899994c-1.600006,1.8 -2.899994,3.4 -4.700012,5.4c-30.799988,24.1 -189.199982,156.799997 -201.899994,426.399988c-10.299988,213.799988 128.399994,354.100037 186.300018,403.200012c14.299988,-61.700012 32.600006,-221.200012 27.700012,-382.200012c-0.700012,-11.799988 -0.700012,-42.399994 -0.900024,-84.899994z"/>
   <path fill="#3b4351" id="svg_3" d="m503.399994,850.599976c-2.899994,13.200012 -6.300018,25.900024 -9.800018,34l-5.099976,10.099976c8.299988,40.700012 7.099976,86.200012 7.099976,86.200012l27.5,9.200012c0,0 -5.599976,-72.599976 2.200012,-107.700012c0.400024,-1.599976 0.700012,-2.899963 1.099976,-4.5c-7.599976,-6.999939 -17.599976,-18.099976 -22.999969,-27.299988z"/>
   <path fill="#3b4351" id="svg_4" d="m721.200012,371.200012c-54.099976,-237.5 -181.399963,-315.399994 -195,-345.100002c-0.400024,-0.4 -0.900024,-1.1 -1.099976,-1.799999c3.099976,61.199997 4.899963,169.599998 5.799988,353.400002l0,0.399994c0.200012,40.199982 0.200012,72.199982 0.700012,83.100006c3.099976,106.099976 -3.400024,200.399963 -9.400024,260.700012c0.700012,59.399963 21.700012,111.200012 34,120c4.900024,-4 10.700012,-8.900024 17,-14.700012c0.700012,-0.400024 1.099976,-0.700012 1.099976,-0.700012c0,-0.200012 0,-0.200012 0,-0.399963c64.700012,-59.500061 188.900024,-209.400024 146.900024,-454.900024z"/>
  </g>
 </g>
</svg>
